<svg width="812" height="765" viewBox="0 0 812 765" fill="none" xmlns="http://www.w3.org/2000/svg">
<circle cx="489.5" cy="365.5" r="183.5" fill="#EDC684"/>
<path d="M397.768 371.512C394.611 371.512 391.539 371.021 388.552 370.04C385.608 369.059 383.197 367.736 381.32 366.072L384.264 361.016C385.757 362.424 387.699 363.576 390.088 364.472C392.477 365.368 395.037 365.816 397.768 365.816C401.096 365.816 403.677 365.112 405.512 363.704C407.389 362.253 408.328 360.312 408.328 357.88C408.328 355.533 407.432 353.656 405.64 352.248C403.891 350.797 401.096 350.072 397.256 350.072H393.672V345.592L406.984 329.208L407.88 331.768H383.368V326.2H412.936V330.552L399.688 346.872L396.36 344.888H398.472C403.891 344.888 407.944 346.104 410.632 348.536C413.363 350.968 414.728 354.061 414.728 357.816C414.728 360.333 414.109 362.637 412.872 364.728C411.635 366.819 409.757 368.483 407.24 369.72C404.765 370.915 401.608 371.512 397.768 371.512ZM439.001 371.512C435.502 371.512 432.366 370.616 429.593 368.824C426.862 367.032 424.686 364.429 423.065 361.016C421.486 357.603 420.697 353.464 420.697 348.6C420.697 343.736 421.486 339.597 423.065 336.184C424.686 332.771 426.862 330.168 429.593 328.376C432.366 326.584 435.502 325.688 439.001 325.688C442.457 325.688 445.572 326.584 448.345 328.376C451.118 330.168 453.294 332.771 454.873 336.184C456.452 339.597 457.241 343.736 457.241 348.6C457.241 353.464 456.452 357.603 454.873 361.016C453.294 364.429 451.118 367.032 448.345 368.824C445.572 370.616 442.457 371.512 439.001 371.512ZM439.001 365.816C441.348 365.816 443.396 365.176 445.145 363.896C446.937 362.616 448.324 360.696 449.305 358.136C450.329 355.576 450.841 352.397 450.841 348.6C450.841 344.803 450.329 341.624 449.305 339.064C448.324 336.504 446.937 334.584 445.145 333.304C443.396 332.024 441.348 331.384 439.001 331.384C436.654 331.384 434.585 332.024 432.793 333.304C431.001 334.584 429.593 336.504 428.569 339.064C427.588 341.624 427.097 344.803 427.097 348.6C427.097 352.397 427.588 355.576 428.569 358.136C429.593 360.696 431.001 362.616 432.793 363.896C434.585 365.176 436.654 365.816 439.001 365.816ZM481.689 371.512C478.19 371.512 475.054 370.616 472.281 368.824C469.55 367.032 467.374 364.429 465.753 361.016C464.174 357.603 463.385 353.464 463.385 348.6C463.385 343.736 464.174 339.597 465.753 336.184C467.374 332.771 469.55 330.168 472.281 328.376C475.054 326.584 478.19 325.688 481.689 325.688C485.145 325.688 488.259 326.584 491.033 328.376C493.806 330.168 495.982 332.771 497.561 336.184C499.139 339.597 499.929 343.736 499.929 348.6C499.929 353.464 499.139 357.603 497.561 361.016C495.982 364.429 493.806 367.032 491.033 368.824C488.259 370.616 485.145 371.512 481.689 371.512ZM481.689 365.816C484.035 365.816 486.083 365.176 487.833 363.896C489.625 362.616 491.011 360.696 491.993 358.136C493.017 355.576 493.529 352.397 493.529 348.6C493.529 344.803 493.017 341.624 491.993 339.064C491.011 336.504 489.625 334.584 487.833 333.304C486.083 332.024 484.035 331.384 481.689 331.384C479.342 331.384 477.273 332.024 475.481 333.304C473.689 334.584 472.281 336.504 471.257 339.064C470.275 341.624 469.785 344.803 469.785 348.6C469.785 352.397 470.275 355.576 471.257 358.136C472.281 360.696 473.689 362.616 475.481 363.896C477.273 365.176 479.342 365.816 481.689 365.816ZM524.376 371.512C520.877 371.512 517.741 370.616 514.968 368.824C512.237 367.032 510.061 364.429 508.44 361.016C506.861 357.603 506.072 353.464 506.072 348.6C506.072 343.736 506.861 339.597 508.44 336.184C510.061 332.771 512.237 330.168 514.968 328.376C517.741 326.584 520.877 325.688 524.376 325.688C527.832 325.688 530.947 326.584 533.72 328.376C536.493 330.168 538.669 332.771 540.248 336.184C541.827 339.597 542.616 343.736 542.616 348.6C542.616 353.464 541.827 357.603 540.248 361.016C538.669 364.429 536.493 367.032 533.72 368.824C530.947 370.616 527.832 371.512 524.376 371.512ZM524.376 365.816C526.723 365.816 528.771 365.176 530.52 363.896C532.312 362.616 533.699 360.696 534.68 358.136C535.704 355.576 536.216 352.397 536.216 348.6C536.216 344.803 535.704 341.624 534.68 339.064C533.699 336.504 532.312 334.584 530.52 333.304C528.771 332.024 526.723 331.384 524.376 331.384C522.029 331.384 519.96 332.024 518.168 333.304C516.376 334.584 514.968 336.504 513.944 339.064C512.963 341.624 512.472 344.803 512.472 348.6C512.472 352.397 512.963 355.576 513.944 358.136C514.968 360.696 516.376 362.616 518.168 363.896C519.96 365.176 522.029 365.816 524.376 365.816ZM547.608 354.808V351.224H581.976V354.808H547.608ZM547.608 345.976V342.392H581.976V345.976H547.608ZM577.816 371.512C574.445 371.512 571.309 370.957 568.408 369.848C565.549 368.696 563.053 367.096 560.92 365.048C558.786 362.957 557.122 360.525 555.928 357.752C554.733 354.979 554.135 351.928 554.135 348.6C554.135 345.272 554.733 342.221 555.928 339.448C557.122 336.675 558.786 334.264 560.92 332.216C563.053 330.125 565.549 328.525 568.408 327.416C571.309 326.264 574.445 325.688 577.816 325.688C581.314 325.688 584.536 326.285 587.48 327.48C590.424 328.632 592.898 330.36 594.904 332.664L590.808 336.696C589.058 334.904 587.117 333.581 584.984 332.728C582.893 331.832 580.61 331.384 578.136 331.384C575.618 331.384 573.293 331.811 571.16 332.664C569.026 333.517 567.149 334.712 565.528 336.248C563.949 337.784 562.733 339.619 561.88 341.752C561.026 343.843 560.6 346.125 560.6 348.6C560.6 351.075 561.026 353.379 561.88 355.512C562.733 357.603 563.949 359.416 565.528 360.952C567.149 362.488 569.026 363.683 571.16 364.536C573.293 365.389 575.618 365.816 578.136 365.816C580.61 365.816 582.893 365.389 584.984 364.536C587.117 363.64 589.058 362.275 590.808 360.44L594.904 364.472C592.898 366.776 590.424 368.525 587.48 369.72C584.536 370.915 581.314 371.512 577.816 371.512Z" fill="#024247"/>
<path d="M372.829 401.108C371.857 401.108 370.987 400.898 370.219 400.478C369.463 400.058 368.869 399.482 368.437 398.75C368.005 398.018 367.789 397.178 367.789 396.23C367.789 395.282 368.005 394.442 368.437 393.71C368.869 392.978 369.463 392.408 370.219 392C370.987 391.58 371.857 391.37 372.829 391.37C373.693 391.37 374.461 391.544 375.133 391.892C375.817 392.228 376.345 392.732 376.717 393.404L375.403 394.25C375.091 393.782 374.707 393.44 374.251 393.224C373.807 392.996 373.327 392.882 372.811 392.882C372.187 392.882 371.629 393.02 371.137 393.296C370.645 393.572 370.255 393.962 369.967 394.466C369.679 394.958 369.535 395.546 369.535 396.23C369.535 396.914 369.679 397.508 369.967 398.012C370.255 398.516 370.645 398.906 371.137 399.182C371.629 399.458 372.187 399.596 372.811 399.596C373.327 399.596 373.807 399.488 374.251 399.272C374.707 399.044 375.091 398.696 375.403 398.228L376.717 399.056C376.345 399.716 375.817 400.226 375.133 400.586C374.461 400.934 373.693 401.108 372.829 401.108ZM384.012 401.108C383.22 401.108 382.494 400.928 381.834 400.568C381.186 400.196 380.664 399.65 380.268 398.93C379.884 398.21 379.692 397.31 379.692 396.23C379.692 395.15 379.878 394.25 380.25 393.53C380.634 392.81 381.15 392.27 381.798 391.91C382.458 391.55 383.196 391.37 384.012 391.37C384.948 391.37 385.776 391.574 386.496 391.982C387.216 392.39 387.786 392.96 388.206 393.692C388.626 394.412 388.836 395.258 388.836 396.23C388.836 397.202 388.626 398.054 388.206 398.786C387.786 399.518 387.216 400.088 386.496 400.496C385.776 400.904 384.948 401.108 384.012 401.108ZM378.954 404.492V391.46H380.61V394.034L380.502 396.248L380.682 398.462V404.492H378.954ZM383.868 399.596C384.48 399.596 385.026 399.458 385.506 399.182C385.998 398.906 386.382 398.516 386.658 398.012C386.946 397.496 387.09 396.902 387.09 396.23C387.09 395.546 386.946 394.958 386.658 394.466C386.382 393.962 385.998 393.572 385.506 393.296C385.026 393.02 384.48 392.882 383.868 392.882C383.268 392.882 382.722 393.02 382.23 393.296C381.75 393.572 381.366 393.962 381.078 394.466C380.802 394.958 380.664 395.546 380.664 396.23C380.664 396.902 380.802 397.496 381.078 398.012C381.366 398.516 381.75 398.906 382.23 399.182C382.722 399.458 383.268 399.596 383.868 399.596ZM395.595 401.108C394.575 401.108 393.675 400.898 392.895 400.478C392.127 400.058 391.527 399.482 391.095 398.75C390.675 398.018 390.465 397.178 390.465 396.23C390.465 395.282 390.669 394.442 391.077 393.71C391.497 392.978 392.067 392.408 392.787 392C393.519 391.58 394.341 391.37 395.253 391.37C396.177 391.37 396.993 391.574 397.701 391.982C398.409 392.39 398.961 392.966 399.357 393.71C399.765 394.442 399.969 395.3 399.969 396.284C399.969 396.356 399.963 396.44 399.951 396.536C399.951 396.632 399.945 396.722 399.933 396.806H391.815V395.564H399.033L398.331 395.996C398.343 395.384 398.217 394.838 397.953 394.358C397.689 393.878 397.323 393.506 396.855 393.242C396.399 392.966 395.865 392.828 395.253 392.828C394.653 392.828 394.119 392.966 393.651 393.242C393.183 393.506 392.817 393.884 392.553 394.376C392.289 394.856 392.157 395.408 392.157 396.032V396.32C392.157 396.956 392.301 397.526 392.589 398.03C392.889 398.522 393.303 398.906 393.831 399.182C394.359 399.458 394.965 399.596 395.649 399.596C396.213 399.596 396.723 399.5 397.179 399.308C397.647 399.116 398.055 398.828 398.403 398.444L399.357 399.56C398.925 400.064 398.385 400.448 397.737 400.712C397.101 400.976 396.387 401.108 395.595 401.108ZM409.007 400.19V392.972H404.867L404.777 394.808C404.753 395.408 404.711 395.99 404.651 396.554C404.603 397.106 404.519 397.616 404.399 398.084C404.291 398.552 404.129 398.936 403.913 399.236C403.697 399.536 403.409 399.722 403.049 399.794L401.339 399.488C401.711 399.5 402.011 399.38 402.239 399.128C402.467 398.864 402.641 398.504 402.761 398.048C402.893 397.592 402.989 397.076 403.049 396.5C403.109 395.912 403.157 395.306 403.193 394.682L403.337 391.46H410.735V400.19H409.007ZM400.961 403.214V399.488H412.193V403.214H410.573V401H402.599V403.214H400.961ZM414.445 401V391.46H416.173V395.51H421.609V391.46H423.337V401H421.609V397.004H416.173V401H414.445ZM426.696 401V391.46H428.424V398.408L434.274 391.46H435.84V401H434.112V394.052L428.28 401H426.696ZM439.195 401V391.46H440.923V398.408L446.773 391.46H448.339V401H446.611V394.052L440.779 401H439.195ZM443.659 390.218C442.783 390.218 442.093 390.008 441.589 389.588C441.097 389.156 440.845 388.538 440.833 387.734H442.003C442.015 388.19 442.165 388.55 442.453 388.814C442.753 389.078 443.149 389.21 443.641 389.21C444.133 389.21 444.529 389.078 444.829 388.814C445.129 388.55 445.285 388.19 445.297 387.734H446.503C446.491 388.538 446.233 389.156 445.729 389.588C445.225 390.008 444.535 390.218 443.659 390.218ZM463.043 400.19V392.972H458.903L458.813 394.808C458.789 395.408 458.747 395.99 458.687 396.554C458.639 397.106 458.555 397.616 458.435 398.084C458.327 398.552 458.165 398.936 457.949 399.236C457.733 399.536 457.445 399.722 457.085 399.794L455.375 399.488C455.747 399.5 456.047 399.38 456.275 399.128C456.503 398.864 456.677 398.504 456.797 398.048C456.929 397.592 457.025 397.076 457.085 396.5C457.145 395.912 457.193 395.306 457.229 394.682L457.373 391.46H464.771V400.19H463.043ZM454.997 403.214V399.488H466.229V403.214H464.609V401H456.635V403.214H454.997ZM472.566 401.108C471.606 401.108 470.754 400.898 470.01 400.478C469.266 400.058 468.678 399.482 468.246 398.75C467.814 398.006 467.598 397.166 467.598 396.23C467.598 395.282 467.814 394.442 468.246 393.71C468.678 392.978 469.266 392.408 470.01 392C470.754 391.58 471.606 391.37 472.566 391.37C473.514 391.37 474.36 391.58 475.104 392C475.86 392.408 476.448 392.978 476.868 393.71C477.3 394.43 477.516 395.27 477.516 396.23C477.516 397.178 477.3 398.018 476.868 398.75C476.448 399.482 475.86 400.058 475.104 400.478C474.36 400.898 473.514 401.108 472.566 401.108ZM472.566 399.596C473.178 399.596 473.724 399.458 474.204 399.182C474.696 398.906 475.08 398.516 475.356 398.012C475.632 397.496 475.77 396.902 475.77 396.23C475.77 395.546 475.632 394.958 475.356 394.466C475.08 393.962 474.696 393.572 474.204 393.296C473.724 393.02 473.178 392.882 472.566 392.882C471.954 392.882 471.408 393.02 470.928 393.296C470.448 393.572 470.064 393.962 469.776 394.466C469.488 394.958 469.344 395.546 469.344 396.23C469.344 396.902 469.488 397.496 469.776 398.012C470.064 398.516 470.448 398.906 470.928 399.182C471.408 399.458 471.954 399.596 472.566 399.596ZM478.183 401L482.287 395.672L482.269 396.554L478.363 391.46H480.289L483.277 395.384H482.539L485.527 391.46H487.417L483.457 396.59L483.475 395.672L487.615 401H485.653L482.503 396.824L483.205 396.932L480.109 401H478.183ZM493.202 401.108C492.242 401.108 491.39 400.898 490.646 400.478C489.902 400.058 489.314 399.482 488.882 398.75C488.45 398.006 488.234 397.166 488.234 396.23C488.234 395.282 488.45 394.442 488.882 393.71C489.314 392.978 489.902 392.408 490.646 392C491.39 391.58 492.242 391.37 493.202 391.37C494.15 391.37 494.996 391.58 495.74 392C496.496 392.408 497.084 392.978 497.504 393.71C497.936 394.43 498.152 395.27 498.152 396.23C498.152 397.178 497.936 398.018 497.504 398.75C497.084 399.482 496.496 400.058 495.74 400.478C494.996 400.898 494.15 401.108 493.202 401.108ZM493.202 399.596C493.814 399.596 494.36 399.458 494.84 399.182C495.332 398.906 495.716 398.516 495.992 398.012C496.268 397.496 496.406 396.902 496.406 396.23C496.406 395.546 496.268 394.958 495.992 394.466C495.716 393.962 495.332 393.572 494.84 393.296C494.36 393.02 493.814 392.882 493.202 392.882C492.59 392.882 492.044 393.02 491.564 393.296C491.084 393.572 490.7 393.962 490.412 394.466C490.124 394.958 489.98 395.546 489.98 396.23C489.98 396.902 490.124 397.496 490.412 398.012C490.7 398.516 491.084 398.906 491.564 399.182C492.044 399.458 492.59 399.596 493.202 399.596ZM507.093 400.19V392.972H502.953L502.863 394.808C502.839 395.408 502.797 395.99 502.737 396.554C502.689 397.106 502.605 397.616 502.485 398.084C502.377 398.552 502.215 398.936 501.999 399.236C501.783 399.536 501.495 399.722 501.135 399.794L499.425 399.488C499.797 399.5 500.097 399.38 500.325 399.128C500.553 398.864 500.727 398.504 500.847 398.048C500.979 397.592 501.075 397.076 501.135 396.5C501.195 395.912 501.243 395.306 501.279 394.682L501.423 391.46H508.821V400.19H507.093ZM499.047 403.214V399.488H510.279V403.214H508.659V401H500.685V403.214H499.047ZM523.214 401V398.984L523.124 398.606V395.168C523.124 394.436 522.908 393.872 522.476 393.476C522.056 393.068 521.42 392.864 520.568 392.864C520.004 392.864 519.452 392.96 518.912 393.152C518.372 393.332 517.916 393.578 517.544 393.89L516.824 392.594C517.316 392.198 517.904 391.898 518.588 391.694C519.284 391.478 520.01 391.37 520.766 391.37C522.074 391.37 523.082 391.688 523.79 392.324C524.498 392.96 524.852 393.932 524.852 395.24V401H523.214ZM520.082 401.108C519.374 401.108 518.75 400.988 518.21 400.748C517.682 400.508 517.274 400.178 516.986 399.758C516.698 399.326 516.554 398.84 516.554 398.3C516.554 397.784 516.674 397.316 516.914 396.896C517.166 396.476 517.568 396.14 518.12 395.888C518.684 395.636 519.44 395.51 520.388 395.51H523.412V396.752H520.46C519.596 396.752 519.014 396.896 518.714 397.184C518.414 397.472 518.264 397.82 518.264 398.228C518.264 398.696 518.45 399.074 518.822 399.362C519.194 399.638 519.71 399.776 520.37 399.776C521.018 399.776 521.582 399.632 522.062 399.344C522.554 399.056 522.908 398.636 523.124 398.084L523.466 399.272C523.238 399.836 522.836 400.286 522.26 400.622C521.684 400.946 520.958 401.108 520.082 401.108ZM534.876 401L531.186 396.356L532.608 395.492L536.91 401H534.876ZM527.964 401V391.46H529.692V401H527.964ZM529.17 396.968V395.492H532.32V396.968H529.17ZM532.752 396.428L531.15 396.212L534.804 391.46H536.658L532.752 396.428ZM540.454 401V392.522L540.886 392.972H536.962V391.46H545.674V392.972H541.768L542.182 392.522V401H540.454ZM547.441 401V391.46H549.169V398.408L555.019 391.46H556.585V401H554.857V394.052L549.025 401H547.441ZM559.939 401V391.46H564.367C565.483 391.46 566.359 391.676 566.995 392.108C567.643 392.528 567.967 393.128 567.967 393.908C567.967 394.688 567.661 395.294 567.049 395.726C566.449 396.146 565.651 396.356 564.655 396.356L564.925 395.888C566.065 395.888 566.911 396.098 567.463 396.518C568.015 396.938 568.291 397.556 568.291 398.372C568.291 399.2 567.979 399.848 567.355 400.316C566.743 400.772 565.801 401 564.529 401H559.939ZM561.631 399.668H564.403C565.123 399.668 565.663 399.56 566.023 399.344C566.383 399.116 566.563 398.756 566.563 398.264C566.563 397.76 566.395 397.394 566.059 397.166C565.735 396.926 565.219 396.806 564.511 396.806H561.631V399.668ZM561.631 395.564H564.223C564.883 395.564 565.381 395.444 565.717 395.204C566.065 394.952 566.239 394.604 566.239 394.16C566.239 393.704 566.065 393.362 565.717 393.134C565.381 392.906 564.883 392.792 564.223 392.792H561.631V395.564ZM570.995 401V391.46H572.723V395.51H578.159V391.46H579.887V401H578.159V397.004H572.723V401H570.995ZM587.333 401.108C586.373 401.108 585.521 400.898 584.777 400.478C584.033 400.058 583.445 399.482 583.013 398.75C582.581 398.006 582.365 397.166 582.365 396.23C582.365 395.282 582.581 394.442 583.013 393.71C583.445 392.978 584.033 392.408 584.777 392C585.521 391.58 586.373 391.37 587.333 391.37C588.281 391.37 589.127 391.58 589.871 392C590.627 392.408 591.215 392.978 591.635 393.71C592.067 394.43 592.283 395.27 592.283 396.23C592.283 397.178 592.067 398.018 591.635 398.75C591.215 399.482 590.627 400.058 589.871 400.478C589.127 400.898 588.281 401.108 587.333 401.108ZM587.333 399.596C587.945 399.596 588.491 399.458 588.971 399.182C589.463 398.906 589.847 398.516 590.123 398.012C590.399 397.496 590.537 396.902 590.537 396.23C590.537 395.546 590.399 394.958 590.123 394.466C589.847 393.962 589.463 393.572 588.971 393.296C588.491 393.02 587.945 392.882 587.333 392.882C586.721 392.882 586.175 393.02 585.695 393.296C585.215 393.572 584.831 393.962 584.543 394.466C584.255 394.958 584.111 395.546 584.111 396.23C584.111 396.902 584.255 397.496 584.543 398.012C584.831 398.516 585.215 398.906 585.695 399.182C586.175 399.458 586.721 399.596 587.333 399.596ZM594.778 401V391.46H601.798V392.972H596.092L596.506 392.576V401H594.778ZM607.232 401.108C606.272 401.108 605.42 400.898 604.676 400.478C603.932 400.058 603.344 399.482 602.912 398.75C602.48 398.006 602.264 397.166 602.264 396.23C602.264 395.282 602.48 394.442 602.912 393.71C603.344 392.978 603.932 392.408 604.676 392C605.42 391.58 606.272 391.37 607.232 391.37C608.18 391.37 609.026 391.58 609.77 392C610.526 392.408 611.114 392.978 611.534 393.71C611.966 394.43 612.182 395.27 612.182 396.23C612.182 397.178 611.966 398.018 611.534 398.75C611.114 399.482 610.526 400.058 609.77 400.478C609.026 400.898 608.18 401.108 607.232 401.108ZM607.232 399.596C607.844 399.596 608.39 399.458 608.87 399.182C609.362 398.906 609.746 398.516 610.022 398.012C610.298 397.496 610.436 396.902 610.436 396.23C610.436 395.546 610.298 394.958 610.022 394.466C609.746 393.962 609.362 393.572 608.87 393.296C608.39 393.02 607.844 392.882 607.232 392.882C606.62 392.882 606.074 393.02 605.594 393.296C605.114 393.572 604.73 393.962 604.442 394.466C604.154 394.958 604.01 395.546 604.01 396.23C604.01 396.902 604.154 397.496 604.442 398.012C604.73 398.516 605.114 398.906 605.594 399.182C606.074 399.458 606.62 399.596 607.232 399.596ZM399.336 423V413.46H408.174V423H406.446V414.54L406.86 414.972H400.65L401.064 414.54V423H399.336ZM417.368 423V420.984L417.278 420.606V417.168C417.278 416.436 417.062 415.872 416.63 415.476C416.21 415.068 415.574 414.864 414.722 414.864C414.158 414.864 413.606 414.96 413.066 415.152C412.526 415.332 412.07 415.578 411.698 415.89L410.978 414.594C411.47 414.198 412.058 413.898 412.742 413.694C413.438 413.478 414.164 413.37 414.92 413.37C416.228 413.37 417.236 413.688 417.944 414.324C418.652 414.96 419.006 415.932 419.006 417.24V423H417.368ZM414.236 423.108C413.528 423.108 412.904 422.988 412.364 422.748C411.836 422.508 411.428 422.178 411.14 421.758C410.852 421.326 410.708 420.84 410.708 420.3C410.708 419.784 410.828 419.316 411.068 418.896C411.32 418.476 411.722 418.14 412.274 417.888C412.838 417.636 413.594 417.51 414.542 417.51H417.566V418.752H414.614C413.75 418.752 413.168 418.896 412.868 419.184C412.568 419.472 412.418 419.82 412.418 420.228C412.418 420.696 412.604 421.074 412.976 421.362C413.348 421.638 413.864 421.776 414.524 421.776C415.172 421.776 415.736 421.632 416.216 421.344C416.708 421.056 417.062 420.636 417.278 420.084L417.62 421.272C417.392 421.836 416.99 422.286 416.414 422.622C415.838 422.946 415.112 423.108 414.236 423.108ZM427.175 423.108C426.383 423.108 425.657 422.928 424.997 422.568C424.349 422.196 423.827 421.65 423.431 420.93C423.047 420.21 422.855 419.31 422.855 418.23C422.855 417.15 423.041 416.25 423.413 415.53C423.797 414.81 424.313 414.27 424.961 413.91C425.621 413.55 426.359 413.37 427.175 413.37C428.111 413.37 428.939 413.574 429.659 413.982C430.379 414.39 430.949 414.96 431.369 415.692C431.789 416.412 431.999 417.258 431.999 418.23C431.999 419.202 431.789 420.054 431.369 420.786C430.949 421.518 430.379 422.088 429.659 422.496C428.939 422.904 428.111 423.108 427.175 423.108ZM422.117 426.492V413.46H423.773V416.034L423.665 418.248L423.845 420.462V426.492H422.117ZM427.031 421.596C427.643 421.596 428.189 421.458 428.669 421.182C429.161 420.906 429.545 420.516 429.821 420.012C430.109 419.496 430.253 418.902 430.253 418.23C430.253 417.546 430.109 416.958 429.821 416.466C429.545 415.962 429.161 415.572 428.669 415.296C428.189 415.02 427.643 414.882 427.031 414.882C426.431 414.882 425.885 415.02 425.393 415.296C424.913 415.572 424.529 415.962 424.241 416.466C423.965 416.958 423.827 417.546 423.827 418.23C423.827 418.902 423.965 419.496 424.241 420.012C424.529 420.516 424.913 420.906 425.393 421.182C425.885 421.458 426.431 421.596 427.031 421.596ZM436.048 423V414.522L436.48 414.972H432.556V413.46H441.268V414.972H437.362L437.776 414.522V423H436.048ZM443.035 423V413.46H444.763V417.51H450.199V413.46H451.927V423H450.199V419.004H444.763V423H443.035ZM459.535 423.108C458.515 423.108 457.615 422.898 456.835 422.478C456.067 422.058 455.467 421.482 455.035 420.75C454.615 420.018 454.405 419.178 454.405 418.23C454.405 417.282 454.609 416.442 455.017 415.71C455.437 414.978 456.007 414.408 456.727 414C457.459 413.58 458.281 413.37 459.193 413.37C460.117 413.37 460.933 413.574 461.641 413.982C462.349 414.39 462.901 414.966 463.297 415.71C463.705 416.442 463.909 417.3 463.909 418.284C463.909 418.356 463.903 418.44 463.891 418.536C463.891 418.632 463.885 418.722 463.873 418.806H455.755V417.564H462.973L462.271 417.996C462.283 417.384 462.157 416.838 461.893 416.358C461.629 415.878 461.263 415.506 460.795 415.242C460.339 414.966 459.805 414.828 459.193 414.828C458.593 414.828 458.059 414.966 457.591 415.242C457.123 415.506 456.757 415.884 456.493 416.376C456.229 416.856 456.097 417.408 456.097 418.032V418.32C456.097 418.956 456.241 419.526 456.529 420.03C456.829 420.522 457.243 420.906 457.771 421.182C458.299 421.458 458.905 421.596 459.589 421.596C460.153 421.596 460.663 421.5 461.119 421.308C461.587 421.116 461.995 420.828 462.343 420.444L463.297 421.56C462.865 422.064 462.325 422.448 461.677 422.712C461.041 422.976 460.327 423.108 459.535 423.108ZM460.849 411.768C460.597 411.768 460.381 411.684 460.201 411.516C460.021 411.336 459.931 411.114 459.931 410.85C459.931 410.574 460.021 410.352 460.201 410.184C460.381 410.004 460.597 409.914 460.849 409.914C461.101 409.914 461.317 410.004 461.497 410.184C461.677 410.352 461.767 410.574 461.767 410.85C461.767 411.114 461.677 411.336 461.497 411.516C461.317 411.684 461.101 411.768 460.849 411.768ZM457.501 411.768C457.249 411.768 457.033 411.684 456.853 411.516C456.673 411.336 456.583 411.114 456.583 410.85C456.583 410.574 456.673 410.352 456.853 410.184C457.033 410.004 457.249 409.914 457.501 409.914C457.753 409.914 457.969 410.004 458.149 410.184C458.329 410.352 458.419 410.574 458.419 410.85C458.419 411.114 458.329 411.336 458.149 411.516C457.969 411.684 457.753 411.768 457.501 411.768ZM471.648 423.108C470.856 423.108 470.13 422.928 469.47 422.568C468.822 422.196 468.3 421.65 467.904 420.93C467.52 420.21 467.328 419.31 467.328 418.23C467.328 417.15 467.514 416.25 467.886 415.53C468.27 414.81 468.786 414.27 469.434 413.91C470.094 413.55 470.832 413.37 471.648 413.37C472.584 413.37 473.412 413.574 474.132 413.982C474.852 414.39 475.422 414.96 475.842 415.692C476.262 416.412 476.472 417.258 476.472 418.23C476.472 419.202 476.262 420.054 475.842 420.786C475.422 421.518 474.852 422.088 474.132 422.496C473.412 422.904 472.584 423.108 471.648 423.108ZM466.59 426.492V413.46H468.246V416.034L468.138 418.248L468.318 420.462V426.492H466.59ZM471.504 421.596C472.116 421.596 472.662 421.458 473.142 421.182C473.634 420.906 474.018 420.516 474.294 420.012C474.582 419.496 474.726 418.902 474.726 418.23C474.726 417.546 474.582 416.958 474.294 416.466C474.018 415.962 473.634 415.572 473.142 415.296C472.662 415.02 472.116 414.882 471.504 414.882C470.904 414.882 470.358 415.02 469.866 415.296C469.386 415.572 469.002 415.962 468.714 416.466C468.438 416.958 468.3 417.546 468.3 418.23C468.3 418.902 468.438 419.496 468.714 420.012C469.002 420.516 469.386 420.906 469.866 421.182C470.358 421.458 470.904 421.596 471.504 421.596ZM484.745 423V420.984L484.655 420.606V417.168C484.655 416.436 484.439 415.872 484.007 415.476C483.587 415.068 482.951 414.864 482.099 414.864C481.535 414.864 480.983 414.96 480.443 415.152C479.903 415.332 479.447 415.578 479.075 415.89L478.355 414.594C478.847 414.198 479.435 413.898 480.119 413.694C480.815 413.478 481.541 413.37 482.297 413.37C483.605 413.37 484.613 413.688 485.321 414.324C486.029 414.96 486.383 415.932 486.383 417.24V423H484.745ZM481.613 423.108C480.905 423.108 480.281 422.988 479.741 422.748C479.213 422.508 478.805 422.178 478.517 421.758C478.229 421.326 478.085 420.84 478.085 420.3C478.085 419.784 478.205 419.316 478.445 418.896C478.697 418.476 479.099 418.14 479.651 417.888C480.215 417.636 480.971 417.51 481.919 417.51H484.943V418.752H481.991C481.127 418.752 480.545 418.896 480.245 419.184C479.945 419.472 479.795 419.82 479.795 420.228C479.795 420.696 479.981 421.074 480.353 421.362C480.725 421.638 481.241 421.776 481.901 421.776C482.549 421.776 483.113 421.632 483.593 421.344C484.085 421.056 484.439 420.636 484.655 420.084L484.997 421.272C484.769 421.836 484.367 422.286 483.791 422.622C483.215 422.946 482.489 423.108 481.613 423.108ZM494.328 423V413.46H498.756C499.872 413.46 500.748 413.676 501.384 414.108C502.032 414.528 502.356 415.128 502.356 415.908C502.356 416.688 502.05 417.294 501.438 417.726C500.838 418.146 500.04 418.356 499.044 418.356L499.314 417.888C500.454 417.888 501.3 418.098 501.852 418.518C502.404 418.938 502.68 419.556 502.68 420.372C502.68 421.2 502.368 421.848 501.744 422.316C501.132 422.772 500.19 423 498.918 423H494.328ZM496.02 421.668H498.792C499.512 421.668 500.052 421.56 500.412 421.344C500.772 421.116 500.952 420.756 500.952 420.264C500.952 419.76 500.784 419.394 500.448 419.166C500.124 418.926 499.608 418.806 498.9 418.806H496.02V421.668ZM496.02 417.564H498.612C499.272 417.564 499.77 417.444 500.106 417.204C500.454 416.952 500.628 416.604 500.628 416.16C500.628 415.704 500.454 415.362 500.106 415.134C499.77 414.906 499.272 414.792 498.612 414.792H496.02V417.564ZM510.219 423V413.46H511.947V417.51H517.383V413.46H519.111V423H517.383V419.004H511.947V423H510.219ZM526.719 423.108C525.699 423.108 524.799 422.898 524.019 422.478C523.251 422.058 522.651 421.482 522.219 420.75C521.799 420.018 521.589 419.178 521.589 418.23C521.589 417.282 521.793 416.442 522.201 415.71C522.621 414.978 523.191 414.408 523.911 414C524.643 413.58 525.465 413.37 526.377 413.37C527.301 413.37 528.117 413.574 528.825 413.982C529.533 414.39 530.085 414.966 530.481 415.71C530.889 416.442 531.093 417.3 531.093 418.284C531.093 418.356 531.087 418.44 531.075 418.536C531.075 418.632 531.069 418.722 531.057 418.806H522.939V417.564H530.157L529.455 417.996C529.467 417.384 529.341 416.838 529.077 416.358C528.813 415.878 528.447 415.506 527.979 415.242C527.523 414.966 526.989 414.828 526.377 414.828C525.777 414.828 525.243 414.966 524.775 415.242C524.307 415.506 523.941 415.884 523.677 416.376C523.413 416.856 523.281 417.408 523.281 418.032V418.32C523.281 418.956 523.425 419.526 523.713 420.03C524.013 420.522 524.427 420.906 524.955 421.182C525.483 421.458 526.089 421.596 526.773 421.596C527.337 421.596 527.847 421.5 528.303 421.308C528.771 421.116 529.179 420.828 529.527 420.444L530.481 421.56C530.049 422.064 529.509 422.448 528.861 422.712C528.225 422.976 527.511 423.108 526.719 423.108ZM540.131 422.19V414.972H535.991L535.901 416.808C535.877 417.408 535.835 417.99 535.775 418.554C535.727 419.106 535.643 419.616 535.523 420.084C535.415 420.552 535.253 420.936 535.037 421.236C534.821 421.536 534.533 421.722 534.173 421.794L532.463 421.488C532.835 421.5 533.135 421.38 533.363 421.128C533.591 420.864 533.765 420.504 533.885 420.048C534.017 419.592 534.113 419.076 534.173 418.5C534.233 417.912 534.281 417.306 534.317 416.682L534.461 413.46H541.859V422.19H540.131ZM532.085 425.214V421.488H543.317V425.214H541.697V423H533.723V425.214H532.085ZM549.817 423.108C548.797 423.108 547.897 422.898 547.117 422.478C546.349 422.058 545.749 421.482 545.317 420.75C544.897 420.018 544.687 419.178 544.687 418.23C544.687 417.282 544.891 416.442 545.299 415.71C545.719 414.978 546.289 414.408 547.009 414C547.741 413.58 548.563 413.37 549.475 413.37C550.399 413.37 551.215 413.574 551.923 413.982C552.631 414.39 553.183 414.966 553.579 415.71C553.987 416.442 554.191 417.3 554.191 418.284C554.191 418.356 554.185 418.44 554.173 418.536C554.173 418.632 554.167 418.722 554.155 418.806H546.037V417.564H553.255L552.553 417.996C552.565 417.384 552.439 416.838 552.175 416.358C551.911 415.878 551.545 415.506 551.077 415.242C550.621 414.966 550.087 414.828 549.475 414.828C548.875 414.828 548.341 414.966 547.873 415.242C547.405 415.506 547.039 415.884 546.775 416.376C546.511 416.856 546.379 417.408 546.379 418.032V418.32C546.379 418.956 546.523 419.526 546.811 420.03C547.111 420.522 547.525 420.906 548.053 421.182C548.581 421.458 549.187 421.596 549.871 421.596C550.435 421.596 550.945 421.5 551.401 421.308C551.869 421.116 552.277 420.828 552.625 420.444L553.579 421.56C553.147 422.064 552.607 422.448 551.959 422.712C551.323 422.976 550.609 423.108 549.817 423.108ZM555.129 422.982L555.237 421.524C555.321 421.536 555.399 421.548 555.471 421.56C555.543 421.572 555.609 421.578 555.669 421.578C556.053 421.578 556.353 421.446 556.569 421.182C556.797 420.918 556.965 420.57 557.073 420.138C557.181 419.694 557.259 419.196 557.307 418.644C557.355 418.092 557.391 417.54 557.415 416.988L557.577 413.46H564.903V423H563.175V414.468L563.589 414.972H558.693L559.089 414.45L558.963 417.096C558.927 417.936 558.861 418.722 558.765 419.454C558.669 420.186 558.519 420.828 558.315 421.38C558.123 421.932 557.853 422.364 557.505 422.676C557.169 422.988 556.731 423.144 556.191 423.144C556.035 423.144 555.867 423.126 555.687 423.09C555.519 423.066 555.333 423.03 555.129 422.982ZM568.244 423V413.46H569.972V417.366H572.852V418.968H569.972V423H568.244ZM576.686 423.108C575.75 423.108 574.916 422.898 574.184 422.478C573.464 422.058 572.894 421.482 572.474 420.75C572.054 420.006 571.844 419.166 571.844 418.23C571.844 417.282 572.054 416.442 572.474 415.71C572.894 414.966 573.464 414.39 574.184 413.982C574.916 413.574 575.75 413.37 576.686 413.37C577.61 413.37 578.438 413.574 579.17 413.982C579.902 414.39 580.478 414.966 580.898 415.71C581.318 416.442 581.528 417.282 581.528 418.23C581.528 419.178 581.318 420.018 580.898 420.75C580.478 421.482 579.902 422.058 579.17 422.478C578.438 422.898 577.61 423.108 576.686 423.108ZM576.686 421.596C577.286 421.596 577.82 421.458 578.288 421.182C578.756 420.894 579.128 420.504 579.404 420.012C579.68 419.508 579.818 418.914 579.818 418.23C579.818 417.546 579.68 416.958 579.404 416.466C579.128 415.962 578.756 415.572 578.288 415.296C577.82 415.02 577.286 414.882 576.686 414.882C576.098 414.882 575.564 415.02 575.084 415.296C574.616 415.572 574.244 415.962 573.968 416.466C573.692 416.958 573.554 417.546 573.554 418.23C573.554 418.914 573.692 419.508 573.968 420.012C574.244 420.504 574.616 420.894 575.084 421.182C575.564 421.458 576.098 421.596 576.686 421.596Z" fill="#024247"/>
<circle cx="490" cy="366" r="217" stroke="#EDC684" stroke-width="4"/>
<path d="M684 266.5L819.5 128.5M589.5 174.5L778.5 -14.5" stroke="#EDC684" stroke-width="4"/>
<path d="M191 763.5L393.5 561M2 763.5L297.5 468" stroke="#EDC684" stroke-width="4"/>
</svg>
