<svg width="922" height="117" viewBox="0 0 922 117" fill="none" xmlns="http://www.w3.org/2000/svg">
<path d="M822.213 45V33.8H831.861V45H830.293V34.776L830.677 35.192H823.397L823.797 34.776V45H822.213ZM840.393 45.128C839.54 45.128 838.745 44.984 838.009 44.696C837.284 44.408 836.655 44.008 836.121 43.496C835.588 42.9733 835.172 42.3653 834.873 41.672C834.575 40.9787 834.425 40.2213 834.425 39.4C834.425 38.5787 834.575 37.8213 834.873 37.128C835.172 36.4347 835.588 35.832 836.121 35.32C836.655 34.7973 837.284 34.392 838.009 34.104C838.735 33.816 839.529 33.672 840.393 33.672C841.247 33.672 842.031 33.816 842.745 34.104C843.471 34.3813 844.1 34.7813 844.633 35.304C845.177 35.816 845.593 36.4187 845.881 37.112C846.18 37.8053 846.329 38.568 846.329 39.4C846.329 40.232 846.18 40.9947 845.881 41.688C845.593 42.3813 845.177 42.9893 844.633 43.512C844.1 44.024 843.471 44.424 842.745 44.712C842.031 44.9893 841.247 45.128 840.393 45.128ZM840.393 43.704C841.012 43.704 841.583 43.5973 842.105 43.384C842.639 43.1707 843.097 42.872 843.481 42.488C843.876 42.0933 844.18 41.6347 844.393 41.112C844.617 40.5893 844.729 40.0187 844.729 39.4C844.729 38.7813 844.617 38.2107 844.393 37.688C844.18 37.1653 843.876 36.712 843.481 36.328C843.097 35.9333 842.639 35.6293 842.105 35.416C841.583 35.2027 841.012 35.096 840.393 35.096C839.764 35.096 839.183 35.2027 838.649 35.416C838.127 35.6293 837.668 35.9333 837.273 36.328C836.879 36.712 836.569 37.1653 836.345 37.688C836.132 38.2107 836.025 38.7813 836.025 39.4C836.025 40.0187 836.132 40.5893 836.345 41.112C836.569 41.6347 836.879 42.0933 837.273 42.488C837.668 42.872 838.127 43.1707 838.649 43.384C839.183 43.5973 839.764 43.704 840.393 43.704ZM848.075 45.128C847.915 45.128 847.755 45.1173 847.595 45.096C847.435 45.0747 847.259 45.0427 847.067 45L847.179 43.576C847.35 43.6187 847.521 43.64 847.691 43.64C848.161 43.64 848.534 43.4533 848.811 43.08C849.089 42.7067 849.291 42.1413 849.419 41.384C849.558 40.6267 849.649 39.672 849.691 38.52L849.867 33.8H857.755V45H856.187V34.776L856.571 35.192H850.891L851.243 34.76L851.115 38.472C851.083 39.5813 851.009 40.552 850.891 41.384C850.774 42.216 850.598 42.9093 850.363 43.464C850.129 44.0187 849.825 44.4347 849.451 44.712C849.089 44.9893 848.63 45.128 848.075 45.128ZM861.212 43.592C861.767 43.7947 862.279 43.848 862.748 43.752C863.217 43.6453 863.639 43.288 864.012 42.68L864.556 41.816L864.716 41.64L868.828 33.8H870.412L865.436 43.016C865.063 43.72 864.625 44.2533 864.124 44.616C863.633 44.968 863.1 45.16 862.524 45.192C861.959 45.2347 861.383 45.128 860.796 44.872L861.212 43.592ZM864.668 43.064L859.756 33.8H861.468L865.548 41.784L864.668 43.064ZM879.283 40.456C878.653 40.7227 878.04 40.9253 877.443 41.064C876.856 41.192 876.285 41.256 875.731 41.256C874.365 41.256 873.304 40.9253 872.547 40.264C871.8 39.6027 871.427 38.6587 871.427 37.432V33.8H872.995V37.256C872.995 38.088 873.251 38.728 873.763 39.176C874.275 39.624 874.989 39.848 875.907 39.848C876.451 39.848 877.005 39.7787 877.571 39.64C878.147 39.5013 878.707 39.2987 879.251 39.032L879.283 40.456ZM879.01 45V33.8H880.595V45H879.01ZM882.536 45L887.608 33.8H889.192L894.28 45H892.6L888.072 34.696H888.712L884.184 45H882.536ZM884.696 42.2L885.128 40.92H891.432L891.896 42.2H884.696ZM896.213 45V33.8H897.797V38.6H900.693V40.04H897.797V45H896.213ZM905.493 45.128C904.682 45.128 903.93 44.9893 903.237 44.712C902.543 44.424 901.941 44.024 901.429 43.512C900.917 42.9893 900.517 42.3813 900.229 41.688C899.951 40.9947 899.813 40.232 899.813 39.4C899.813 38.568 899.951 37.8053 900.229 37.112C900.517 36.4187 900.917 35.816 901.429 35.304C901.941 34.7813 902.543 34.3813 903.237 34.104C903.93 33.816 904.682 33.672 905.493 33.672C906.303 33.672 907.055 33.816 907.749 34.104C908.453 34.3813 909.061 34.7813 909.573 35.304C910.085 35.816 910.479 36.4187 910.757 37.112C911.045 37.8053 911.189 38.568 911.189 39.4C911.189 40.232 911.045 40.9947 910.757 41.688C910.479 42.3813 910.085 42.9893 909.573 43.512C909.061 44.024 908.453 44.424 907.749 44.712C907.055 44.9893 906.303 45.128 905.493 45.128ZM905.493 43.688C906.079 43.688 906.618 43.5867 907.109 43.384C907.61 43.1707 908.042 42.872 908.405 42.488C908.778 42.104 909.066 41.6507 909.269 41.128C909.482 40.6053 909.589 40.0293 909.589 39.4C909.589 38.7707 909.482 38.1947 909.269 37.672C909.066 37.1493 908.778 36.696 908.405 36.312C908.042 35.928 907.61 35.6347 907.109 35.432C906.618 35.2187 906.085 35.112 905.509 35.112C904.933 35.112 904.394 35.2187 903.893 35.432C903.402 35.6347 902.97 35.928 902.597 36.312C902.234 36.696 901.946 37.1493 901.733 37.672C901.53 38.1947 901.429 38.7707 901.429 39.4C901.429 40.0293 901.53 40.6053 901.733 41.128C901.946 41.6507 902.234 42.104 902.597 42.488C902.97 42.872 903.402 43.1707 903.893 43.384C904.394 43.5867 904.927 43.688 905.493 43.688ZM915.923 45V34.776L916.323 35.192H912.099V33.8H921.331V35.192H917.107L917.491 34.776V45H915.923Z" fill="#024247"/>
<path d="M829.776 53.8H831.376V65H829.776V53.8ZM823.344 65H821.744V53.8H823.344V65ZM829.92 60.008H823.184V58.616H829.92V60.008ZM833.317 65L838.389 53.8H839.973L845.061 65H843.381L838.853 54.696H839.493L834.965 65H833.317ZM835.477 62.2L835.909 60.92H842.213L842.677 62.2H835.477ZM853.602 63.608L853.234 64.024V53.8H854.802V64.024L854.402 63.608H859.858L859.458 64.024V53.8H861.026V65H846.994V53.8H848.578V64.024L848.178 63.608H853.602ZM864.51 65V53.8H866.094V62.44L872.718 53.8H874.19V65H872.622V56.376L865.982 65H864.51Z" fill="#024247"/>
<path d="M821.744 85V73.8H831.392V85H829.824V74.776L830.208 75.192H822.928L823.328 74.776V85H821.744ZM833.333 85L838.405 73.8H839.989L845.077 85H843.397L838.869 74.696H839.509L834.981 85H833.333ZM835.493 82.2L835.925 80.92H842.229L842.693 82.2H835.493ZM847.01 85V73.8H851.378C852.359 73.8 853.196 73.9547 853.89 74.264C854.583 74.5733 855.116 75.0213 855.49 75.608C855.863 76.1947 856.05 76.8933 856.05 77.704C856.05 78.5147 855.863 79.2133 855.49 79.8C855.116 80.376 854.583 80.824 853.89 81.144C853.196 81.4533 852.359 81.608 851.378 81.608H847.89L848.61 80.856V85H847.01ZM848.61 81.016L847.89 80.216H851.33C852.354 80.216 853.127 79.9973 853.65 79.56C854.183 79.1227 854.45 78.504 854.45 77.704C854.45 76.904 854.183 76.2853 853.65 75.848C853.127 75.4107 852.354 75.192 851.33 75.192H847.89L848.61 74.392V81.016ZM860.204 85V74.776L860.604 75.192H856.38V73.8H865.612V75.192H861.388L861.772 74.776V85H860.204ZM875.589 73.8H877.189V85H875.589V73.8ZM869.157 85H867.557V73.8H869.157V85ZM875.733 80.008H868.997V78.616H875.733V80.008ZM882.138 78.632H887.898V79.992H882.138V78.632ZM882.282 83.608H888.81V85H880.682V73.8H888.586V75.192H882.282V83.608ZM886.138 72.616C885.914 72.616 885.722 72.5413 885.562 72.392C885.402 72.232 885.322 72.0347 885.322 71.8C885.322 71.5547 885.402 71.3573 885.562 71.208C885.722 71.048 885.914 70.968 886.138 70.968C886.362 70.968 886.554 71.048 886.714 71.208C886.874 71.3573 886.954 71.5547 886.954 71.8C886.954 72.0347 886.874 72.232 886.714 72.392C886.554 72.5413 886.362 72.616 886.138 72.616ZM883.161 72.616C882.938 72.616 882.746 72.5413 882.586 72.392C882.426 72.232 882.346 72.0347 882.346 71.8C882.346 71.5547 882.426 71.3573 882.586 71.208C882.746 71.048 882.938 70.968 883.161 70.968C883.386 70.968 883.578 71.048 883.738 71.208C883.898 71.3573 883.978 71.5547 883.978 71.8C883.978 72.0347 883.898 72.232 883.738 72.392C883.578 72.5413 883.386 72.616 883.161 72.616ZM891.322 85V73.8H895.69C896.671 73.8 897.509 73.9547 898.202 74.264C898.895 74.5733 899.429 75.0213 899.802 75.608C900.175 76.1947 900.362 76.8933 900.362 77.704C900.362 78.5147 900.175 79.2133 899.802 79.8C899.429 80.376 898.895 80.824 898.202 81.144C897.509 81.4533 896.671 81.608 895.69 81.608H892.202L892.922 80.856V85H891.322ZM892.922 81.016L892.202 80.216H895.642C896.666 80.216 897.439 79.9973 897.962 79.56C898.495 79.1227 898.762 78.504 898.762 77.704C898.762 76.904 898.495 76.2853 897.962 75.848C897.439 75.4107 896.666 75.192 895.642 75.192H892.202L892.922 74.392V81.016ZM907.5 77.704C908.822 77.704 909.841 78.0027 910.556 78.6C911.27 79.1867 911.628 80.0667 911.628 81.24C911.628 82.4773 911.238 83.416 910.46 84.056C909.692 84.6853 908.609 85 907.212 85H902.588V73.8H904.172V77.704H907.5ZM907.148 83.736C908.076 83.736 908.785 83.528 909.276 83.112C909.777 82.696 910.028 82.0827 910.028 81.272C910.028 80.4827 909.782 79.9013 909.292 79.528C908.801 79.1547 908.086 78.968 907.148 78.968H904.172V83.736H907.148ZM913.404 85V73.8H914.988V85H913.404Z" fill="#024247"/>
<path fill-rule="evenodd" clip-rule="evenodd" d="M358.12 28.531L350.111 36.0554L358.35 36.0958L366.59 36.1362L374.074 28.5681L381.559 21L373.845 21.0033L366.13 21.0067L358.12 28.531ZM393.931 21.5241C394.17 21.8122 397.421 25.2158 401.155 29.0873L407.944 36.1267L416.186 36.1299C420.719 36.1318 424.393 36.097 424.349 36.0527C424.305 36.0084 420.388 32.6053 415.644 28.4902L407.019 21.0084L400.257 21.0042L393.495 21L393.931 21.5241ZM381.637 30.2828L375.852 36.1334H387.326H398.8L396.98 34.2222C392.748 29.7792 387.571 24.4337 387.499 24.4331C387.456 24.4326 384.818 27.065 381.637 30.2828ZM348 42.769C348 42.8741 376.512 84.9538 376.795 85.2663C377.071 85.5719 376.8 84.7272 369.46 62.4217L362.991 42.764L355.495 42.7234C351.373 42.7012 348 42.7217 348 42.769ZM369.937 42.9073C370.205 44.0959 387.442 96.1423 387.52 95.9997C387.702 95.6696 404.473 43.1532 404.473 42.9137C404.473 42.7154 402.238 42.686 387.18 42.686C372.326 42.686 369.895 42.7172 369.937 42.9073ZM404.582 64.2429C400.789 76.0992 397.709 85.8235 397.738 85.8526C397.794 85.9098 427 42.9117 427 42.7711C427 42.7243 423.508 42.686 419.239 42.686H411.478L404.582 64.2429Z" fill="#024247"/>
<path d="M3.75513 93V86.472L31.1151 60.072C33.5471 57.768 35.3391 55.752 36.4911 54.024C37.7071 52.232 38.5071 50.6 38.8911 49.128C39.3391 47.592 39.5631 46.12 39.5631 44.712C39.5631 41.256 38.3471 38.536 35.9151 36.552C33.4831 34.568 29.9311 33.576 25.2591 33.576C21.6751 33.576 18.4431 34.184 15.5631 35.4C12.6831 36.552 10.1871 38.376 8.07513 40.872L1.54713 35.208C4.10713 31.944 7.53113 29.448 11.8191 27.72C16.1711 25.928 20.9391 25.032 26.1231 25.032C30.7951 25.032 34.8591 25.8 38.3151 27.336C41.7711 28.808 44.4271 30.952 46.2831 33.768C48.2031 36.584 49.1631 39.912 49.1631 43.752C49.1631 45.928 48.8751 48.072 48.2991 50.184C47.7231 52.296 46.6351 54.536 45.0351 56.904C43.4351 59.272 41.1311 61.928 38.1231 64.872L13.7391 88.392L11.4351 84.648H52.0431V93H3.75513ZM88.0664 93.768C82.1144 93.768 77.0264 92.456 72.8024 89.832C68.5784 87.208 65.3464 83.432 63.1064 78.504C60.9304 73.512 59.8424 67.432 59.8424 60.264C59.8424 52.648 61.1864 46.216 63.8744 40.968C66.5624 35.72 70.3064 31.752 75.1064 29.064C79.9064 26.376 85.4104 25.032 91.6184 25.032C94.8184 25.032 97.8584 25.352 100.738 25.992C103.682 26.632 106.21 27.624 108.322 28.968L104.674 36.456C102.946 35.24 100.962 34.408 98.7224 33.96C96.5464 33.512 94.2424 33.288 91.8104 33.288C84.9624 33.288 79.5224 35.432 75.4904 39.72C71.4584 43.944 69.4424 50.248 69.4424 58.632C69.4424 59.976 69.5064 61.576 69.6344 63.432C69.7624 65.288 70.0824 67.112 70.5944 68.904L67.3304 65.64C68.2904 62.696 69.7944 60.232 71.8424 58.248C73.9544 56.2 76.4504 54.696 79.3304 53.736C82.2744 52.712 85.4424 52.2 88.8344 52.2C93.3144 52.2 97.2824 53.032 100.738 54.696C104.194 56.36 106.914 58.728 108.898 61.8C110.882 64.808 111.874 68.392 111.874 72.552C111.874 76.84 110.818 80.584 108.706 83.784C106.594 86.984 103.746 89.448 100.162 91.176C96.5784 92.904 92.5464 93.768 88.0664 93.768ZM87.6824 85.992C90.6264 85.992 93.1864 85.448 95.3624 84.36C97.6024 83.272 99.3624 81.768 100.642 79.848C101.922 77.864 102.562 75.56 102.562 72.936C102.562 68.968 101.186 65.832 98.4344 63.528C95.6824 61.16 91.9384 59.976 87.2024 59.976C84.1304 59.976 81.4424 60.552 79.1384 61.704C76.8344 62.856 75.0104 64.424 73.6664 66.408C72.3864 68.328 71.7464 70.536 71.7464 73.032C71.7464 75.336 72.3544 77.48 73.5704 79.464C74.7864 81.384 76.5784 82.952 78.9464 84.168C81.3144 85.384 84.2264 85.992 87.6824 85.992ZM146.548 93.768C141.3 93.768 136.596 92.424 132.436 89.736C128.34 87.048 125.076 83.144 122.644 78.024C120.276 72.904 119.092 66.696 119.092 59.4C119.092 52.104 120.276 45.896 122.644 40.776C125.076 35.656 128.34 31.752 132.436 29.064C136.596 26.376 141.3 25.032 146.548 25.032C151.732 25.032 156.404 26.376 160.564 29.064C164.724 31.752 167.988 35.656 170.356 40.776C172.724 45.896 173.908 52.104 173.908 59.4C173.908 66.696 172.724 72.904 170.356 78.024C167.988 83.144 164.724 87.048 160.564 89.736C156.404 92.424 151.732 93.768 146.548 93.768ZM146.548 85.224C150.068 85.224 153.14 84.264 155.764 82.344C158.452 80.424 160.532 77.544 162.004 73.704C163.54 69.864 164.308 65.096 164.308 59.4C164.308 53.704 163.54 48.936 162.004 45.096C160.532 41.256 158.452 38.376 155.764 36.456C153.14 34.536 150.068 33.576 146.548 33.576C143.028 33.576 139.924 34.536 137.236 36.456C134.548 38.376 132.436 41.256 130.9 45.096C129.428 48.936 128.692 53.704 128.692 59.4C128.692 65.096 129.428 69.864 130.9 73.704C132.436 77.544 134.548 80.424 137.236 82.344C139.924 84.264 143.028 85.224 146.548 85.224ZM192.34 93L238.228 25.8H245.62L199.732 93H192.34ZM197.716 61.896C194.644 61.896 191.924 61.128 189.556 59.592C187.188 58.056 185.332 55.912 183.988 53.16C182.708 50.408 182.068 47.208 182.068 43.56C182.068 39.912 182.708 36.712 183.988 33.96C185.332 31.208 187.188 29.064 189.556 27.528C191.924 25.992 194.644 25.224 197.716 25.224C200.852 25.224 203.572 25.992 205.876 27.528C208.244 29.064 210.068 31.208 211.348 33.96C212.628 36.712 213.268 39.912 213.268 43.56C213.268 47.208 212.628 50.408 211.348 53.16C210.068 55.912 208.244 58.056 205.876 59.592C203.572 61.128 200.852 61.896 197.716 61.896ZM197.716 56.424C200.66 56.424 202.964 55.304 204.628 53.064C206.292 50.76 207.124 47.592 207.124 43.56C207.124 39.528 206.292 36.392 204.628 34.152C202.964 31.848 200.66 30.696 197.716 30.696C194.836 30.696 192.532 31.848 190.804 34.152C189.14 36.392 188.308 39.528 188.308 43.56C188.308 47.528 189.14 50.664 190.804 52.968C192.532 55.272 194.836 56.424 197.716 56.424ZM240.244 93.576C237.172 93.576 234.452 92.808 232.084 91.272C229.716 89.736 227.892 87.592 226.612 84.84C225.332 82.088 224.692 78.888 224.692 75.24C224.692 71.592 225.332 68.392 226.612 65.64C227.892 62.888 229.716 60.744 232.084 59.208C234.452 57.672 237.172 56.904 240.244 56.904C243.38 56.904 246.1 57.672 248.404 59.208C250.772 60.744 252.596 62.888 253.876 65.64C255.22 68.392 255.892 71.592 255.892 75.24C255.892 78.888 255.22 82.088 253.876 84.84C252.596 87.592 250.772 89.736 248.404 91.272C246.1 92.808 243.38 93.576 240.244 93.576ZM240.244 88.104C243.124 88.104 245.396 86.984 247.06 84.744C248.788 82.44 249.652 79.272 249.652 75.24C249.652 71.272 248.788 68.136 247.06 65.832C245.396 63.528 243.124 62.376 240.244 62.376C237.364 62.376 235.06 63.528 233.332 65.832C231.668 68.072 230.836 71.208 230.836 75.24C230.836 79.272 231.668 82.44 233.332 84.744C235.06 86.984 237.364 88.104 240.244 88.104ZM295.667 93V25.8H339.731L339.635 34.152H302.771L305.075 31.752L305.171 93H295.667ZM477.182 88.488V34.152H447.71L447.23 48.264C447.038 53 446.718 57.544 446.27 61.896C445.886 66.248 445.31 70.184 444.542 73.704C443.774 77.16 442.686 80.008 441.278 82.248C439.934 84.488 438.206 85.864 436.094 86.376L425.726 84.648C428.222 84.84 430.27 84.008 431.87 82.152C433.534 80.232 434.814 77.576 435.71 74.184C436.67 70.728 437.374 66.728 437.822 62.184C438.27 57.576 438.59 52.648 438.782 47.4L439.454 25.8H486.686V88.488H477.182ZM423.326 107.688L423.422 84.648H496.574V107.688H487.646V93H432.35L432.254 107.688H423.326ZM539.938 93.768C534.818 93.768 530.05 92.904 525.634 91.176C521.282 89.448 517.506 87.048 514.306 83.976C511.106 80.84 508.61 77.192 506.818 73.032C505.026 68.872 504.13 64.328 504.13 59.4C504.13 54.472 505.026 49.928 506.818 45.768C508.61 41.608 511.106 37.992 514.306 34.92C517.506 31.784 521.282 29.352 525.634 27.624C529.986 25.896 534.754 25.032 539.938 25.032C545.058 25.032 549.762 25.896 554.05 27.624C558.402 29.288 562.178 31.688 565.378 34.824C568.642 37.896 571.138 41.512 572.866 45.672C574.658 49.832 575.554 54.408 575.554 59.4C575.554 64.392 574.658 68.968 572.866 73.128C571.138 77.288 568.642 80.936 565.378 84.072C562.178 87.144 558.402 89.544 554.05 91.272C549.762 92.936 545.058 93.768 539.938 93.768ZM539.938 85.224C543.65 85.224 547.074 84.584 550.21 83.304C553.41 82.024 556.162 80.232 558.466 77.928C560.834 75.56 562.658 72.808 563.938 69.672C565.282 66.536 565.954 63.112 565.954 59.4C565.954 55.688 565.282 52.264 563.938 49.128C562.658 45.992 560.834 43.272 558.466 40.968C556.162 38.6 553.41 36.776 550.21 35.496C547.074 34.216 543.65 33.576 539.938 33.576C536.162 33.576 532.674 34.216 529.474 35.496C526.338 36.776 523.586 38.6 521.218 40.968C518.85 43.272 516.994 45.992 515.65 49.128C514.37 52.264 513.73 55.688 513.73 59.4C513.73 63.112 514.37 66.536 515.65 69.672C516.994 72.808 518.85 75.56 521.218 77.928C523.586 80.232 526.338 82.024 529.474 83.304C532.674 84.584 536.162 85.224 539.938 85.224ZM591.073 93V25.8H619.969C627.265 25.8 632.993 27.272 637.153 30.216C641.313 33.16 643.393 37.448 643.393 43.08C643.393 48.584 641.409 52.808 637.441 55.752C633.473 58.632 628.257 60.072 621.793 60.072L623.521 57.192C631.009 57.192 636.737 58.696 640.705 61.704C644.737 64.648 646.753 68.968 646.753 74.664C646.753 80.424 644.641 84.936 640.417 88.2C636.257 91.4 630.049 93 621.793 93H591.073ZM600.577 85.416H621.601C626.721 85.416 630.561 84.488 633.121 82.632C635.745 80.712 637.057 77.8 637.057 73.896C637.057 69.992 635.745 67.144 633.121 65.352C630.561 63.56 626.721 62.664 621.601 62.664H600.577V85.416ZM600.577 55.368H619.297C623.969 55.368 627.521 54.44 629.953 52.584C632.449 50.728 633.697 48.008 633.697 44.424C633.697 40.776 632.449 38.024 629.953 36.168C627.521 34.312 623.969 33.384 619.297 33.384H600.577V55.368ZM692.264 49.224C700.2 49.224 706.312 51.016 710.6 54.6C714.888 58.12 717.032 63.4 717.032 70.44C717.032 77.864 714.696 83.496 710.024 87.336C705.416 91.112 698.92 93 690.536 93H662.792V25.8H672.296V49.224H692.264ZM690.152 85.416C695.72 85.416 699.976 84.168 702.92 81.672C705.928 79.176 707.432 75.496 707.432 70.632C707.432 65.896 705.96 62.408 703.016 60.168C700.072 57.928 695.784 56.808 690.152 56.808H672.296V85.416H690.152ZM727.688 93V25.8H737.192V93H727.688ZM750.936 25.8H761.976L779.544 50.376L797.112 25.8H808.344L785.592 58.056L810.168 93H798.84L779.544 66.216L760.344 93H749.304L773.784 58.44L750.936 25.8Z" fill="#024247"/>
</svg>
